# xmcd
#
# Track frame offsets: 
#        150
#        15230
#        39722
#
# Disc length: 730 seconds
#
# Revision: 0
# Processed by: cddbd v1.5.2PL0 Copyright (c) Steve Scherf et al.
# Submitted via: ExactAudioCopy v0.95b4
#
DISCID=1702d803
DTITLE=Ted Herold - Alles oder Nichts
DYEAR=2002
DGENRE=Rock and Roll
TTITLE0=Alles oder Nichts (Radio Version)
TTITLE1=Alles oder Nichts (Maxi Version)
TTITLE2=Alles oder Nichts (Elektro-Smokers-Version)
EXTD=
EXTT0=
EXTT1=
EXTT2=
PLAYORDER=
